<svg width="42" height="41" viewBox="0 0 42 41" fill="none" xmlns="http://www.w3.org/2000/svg">
    <path
        d="M10.6464 38.2729C11.5929 38.2472 12.5401 38.2811 13.4823 38.3745C14.6043 38.5668 15.6998 38.8906 16.7461 39.3391C17.9874 39.8645 19.3155 40.1548 20.6627 40.195H35.1686C35.8571 40.1994 36.5217 39.9426 37.0283 39.4763C37.5348 39.01 37.8457 38.3689 37.8982 37.6824C37.9506 36.9958 37.7408 36.315 37.3109 35.7771C36.8811 35.2393 36.2632 34.8844 35.582 34.7842C36.388 34.9237 37.2164 34.7373 37.8849 34.266C38.5535 33.7947 39.0074 33.0771 39.1469 32.2711C39.2863 31.4651 39.0999 30.6368 38.6286 29.9682C38.1573 29.2997 37.4397 28.8458 36.6337 28.7063C36.8177 28.7418 37.0048 28.7588 37.1922 28.757C37.9634 28.7629 38.7087 28.4796 39.2812 27.9629C39.8537 27.4461 40.2116 26.7336 40.2845 25.9659C40.3573 25.1981 40.1398 24.431 39.6747 23.8158C39.2097 23.2006 38.5309 22.7821 37.7724 22.6428H37.9175C38.735 22.6428 39.5191 22.3181 40.0971 21.74C40.6752 21.1619 41 20.3778 41 19.5603C41 18.7428 40.6752 17.9587 40.0971 17.3807C39.5191 16.8026 38.735 16.4778 37.9175 16.4778H37.7362L27.1396 16.5358C27.1396 16.5358 24.2892 16.826 25.3409 14.9837C32.7316 2.00818 25.8776 0.296484 25.0798 1.2031C24.2819 2.10972 23.0054 6.05532 22.0045 7.73076C21.0036 9.40619 18.4143 11.5748 16.2747 13.5331C14.1351 15.4914 12.3001 18.0807 9.51495 18.8205C6.72982 19.5603 6.56301 19.379 6.00453 19.379H3.17588C2.5988 19.379 2.04535 19.6083 1.63729 20.0163C1.22923 20.4244 1 20.9778 1 21.5549V38.1714C1 38.7485 1.22923 39.3019 1.63729 39.7099C2.04535 40.118 2.5988 40.3473 3.17588 40.3473H5.78695C6.36403 40.3473 6.91747 40.118 7.32552 39.7099C7.73358 39.3019 7.96283 38.7485 7.96283 38.1714V23.3826"
        stroke="black" stroke-width="1.2" stroke-linecap="round" stroke-linejoin="round" />
</svg>